<svg width="25" height="25" viewBox="0 0 25 25" fill="none" xmlns="http://www.w3.org/2000/svg">
<g clip-path="url(#clip0_2786_56549)">
<rect x="2.12695" y="5.55704" width="20.1016" height="17.7367" rx="2.95611" fill="#B4C4FF"/>
<path d="M2.12695 8.51315C2.12695 6.88053 3.45045 5.55704 5.08307 5.55704H19.2724C20.905 5.55704 22.2285 6.88053 22.2285 8.51315H2.12695Z" fill="#7790ED"/>
<path d="M6.85742 4.07892C6.85742 3.26261 7.51917 2.60086 8.33548 2.60086C9.15179 2.60086 9.81353 3.26261 9.81353 4.07892V5.55697H6.85742V4.07892Z" fill="#7790ED"/>
<path d="M14.543 4.07892C14.543 3.26261 15.2047 2.60086 16.021 2.60086C16.8373 2.60086 17.4991 3.26261 17.4991 4.07892V5.55697H14.543V4.07892Z" fill="#7790ED"/>
<rect x="5.08203" y="10.8779" width="4.13856" height="4.13856" rx="0.506762" fill="#7790ED"/>
</g>
<defs>
<clipPath id="clip0_2786_56549">
<rect width="24" height="24" fill="white" transform="translate(0.226562 0.973633)"/>
</clipPath>
</defs>
</svg>
