<svg width="25" height="24" viewBox="0 0 25 24" fill="none" xmlns="http://www.w3.org/2000/svg">
<path d="M1.98047 18.82V15.8532C1.98047 15.7326 1.98952 15.6124 2.01546 15.4946C2.38155 13.8312 4.07127 10.8235 8.29351 10.8235C12.5157 10.8235 14.2055 13.8312 14.5716 15.4946C14.5975 15.6124 14.6065 15.7326 14.6065 15.8532V18.82C14.6065 19.9822 13.6644 20.9243 12.5022 20.9243H4.08481C2.92262 20.9243 1.98047 19.9822 1.98047 18.82Z" fill="#7790ED"/>
<path d="M10.8184 18.82V15.8532C10.8184 15.7326 10.8274 15.6124 10.8533 15.4946C11.2194 13.8312 12.9092 10.8235 17.1314 10.8235C21.3536 10.8235 23.0434 13.8312 23.4094 15.4946C23.4354 15.6124 23.4444 15.7326 23.4444 15.8532V18.82C23.4444 19.9822 22.5023 20.9243 21.3401 20.9243H12.9227C11.7605 20.9243 10.8184 19.9822 10.8184 18.82Z" fill="#B4C4FF"/>
<circle cx="8.29664" cy="6.44239" r="3.36695" fill="#7790ED"/>
<circle cx="17.1345" cy="6.44239" r="3.36695" fill="#B4C4FF"/>
</svg>
