<svg width="25" height="25" viewBox="0 0 25 25" fill="none" xmlns="http://www.w3.org/2000/svg">
<path d="M1.98047 18.8359V15.8691C1.98047 15.7484 1.98952 15.6283 2.01546 15.5104C2.38155 13.847 4.07127 10.8394 8.29351 10.8394C12.5157 10.8394 14.2055 13.847 14.5716 15.5104C14.5975 15.6283 14.6065 15.7484 14.6065 15.8691V18.8359C14.6065 19.9981 13.6644 20.9402 12.5022 20.9402H4.08481C2.92262 20.9402 1.98047 19.9981 1.98047 18.8359Z" fill="#808080"/>
<path d="M10.8184 18.8359V15.8691C10.8184 15.7484 10.8274 15.6283 10.8533 15.5104C11.2194 13.847 12.9092 10.8394 17.1314 10.8394C21.3536 10.8394 23.0434 13.847 23.4094 15.5104C23.4354 15.6283 23.4444 15.7484 23.4444 15.8691V18.8359C23.4444 19.9981 22.5023 20.9402 21.3401 20.9402H12.9227C11.7605 20.9402 10.8184 19.9981 10.8184 18.8359Z" fill="#B1B1B1"/>
<circle cx="8.29664" cy="6.45826" r="3.36695" fill="#808080"/>
<circle cx="17.1345" cy="6.45826" r="3.36695" fill="#B1B1B1"/>
</svg>
