<svg width="25" height="25" viewBox="0 0 25 25" fill="none" xmlns="http://www.w3.org/2000/svg">
<g clip-path="url(#clip0_2786_56550)">
<g clip-path="url(#clip1_2786_56550)">
<rect x="2.12695" y="4.5721" width="20.1016" height="17.7367" rx="2.95611" fill="#B1B1B1"/>
<path d="M2.12695 7.52821C2.12695 5.89559 3.45045 4.5721 5.08307 4.5721H19.2724C20.905 4.5721 22.2285 5.89559 22.2285 7.52821H2.12695Z" fill="#808080"/>
<path d="M6.85742 3.09398C6.85742 2.27767 7.51917 1.61592 8.33548 1.61592C9.15179 1.61592 9.81353 2.27767 9.81353 3.09398V4.57203H6.85742V3.09398Z" fill="#808080"/>
<path d="M14.543 3.09398C14.543 2.27767 15.2047 1.61592 16.021 1.61592C16.8373 1.61592 17.4991 2.27767 17.4991 3.09398V4.57203H14.543V3.09398Z" fill="#808080"/>
<rect x="5.08203" y="9.89275" width="4.13856" height="4.13856" rx="0.506762" fill="#808080"/>
</g>
</g>
<defs>
<clipPath id="clip0_2786_56550">
<rect width="24.0289" height="24.0289" fill="white" transform="translate(0.248047 0.000976562)"/>
</clipPath>
<clipPath id="clip1_2786_56550">
<rect width="24" height="24" fill="white" transform="translate(0.226562 -0.0110626)"/>
</clipPath>
</defs>
</svg>
