<svg width="35" height="36" viewBox="0 0 35 36" fill="none" xmlns="http://www.w3.org/2000/svg">
<circle cx="17.5" cy="17.874" r="16.335" fill="#999999" stroke="white" stroke-width="2.33005"/>
<path d="M17.5 15.499C16.2127 15.499 15.125 16.5868 15.125 17.874C15.125 19.1613 16.2127 20.249 17.5 20.249C18.7873 20.249 19.875 19.1613 19.875 17.874C19.875 16.5868 18.7873 15.499 17.5 15.499Z" fill="white"/>
<path d="M23.8335 12.333H21.7862L19.6432 10.19C19.4948 10.0415 19.2934 9.95805 19.0835 9.95801H15.9168C15.7069 9.95805 15.5056 10.0415 15.3571 10.19L13.2141 12.333H11.1668C10.2936 12.333 9.5835 13.0431 9.5835 13.9163V22.6247C9.5835 23.4979 10.2936 24.208 11.1668 24.208H23.8335C24.7067 24.208 25.4168 23.4979 25.4168 22.6247V13.9163C25.4168 13.0431 24.7067 12.333 23.8335 12.333ZM17.5002 21.833C15.3547 21.833 13.5418 20.0201 13.5418 17.8747C13.5418 15.7293 15.3547 13.9163 17.5002 13.9163C19.6456 13.9163 21.4585 15.7293 21.4585 17.8747C21.4585 20.0201 19.6456 21.833 17.5002 21.833Z" fill="white"/>
</svg>
