<svg width="16" height="16" viewBox="0 0 16 16" fill="none" xmlns="http://www.w3.org/2000/svg">
<path d="M8.1433 13.7607L8.14212 13.7614C8.09844 13.7849 8.04961 13.7972 8 13.7972C7.95039 13.7972 7.90156 13.7849 7.85788 13.7614L7.8567 13.7607C7.72534 13.6912 6.0496 12.7777 4.40973 11.3416C2.75934 9.89623 1.20005 7.96898 1.2 5.87511C1.20113 4.90076 1.58869 3.96663 2.27766 3.27766C2.96663 2.58869 3.90076 2.20113 4.87511 2.2C6.10724 2.20003 7.17609 2.72889 7.84006 3.61321L8 3.82622L8.15994 3.61321C8.82391 2.72889 9.89276 2.20003 11.1249 2.2C12.0992 2.20113 13.0334 2.58869 13.7223 3.27766C14.4113 3.96666 14.7989 4.90083 14.8 5.87523C14.7999 7.96905 13.2406 9.89626 11.5903 11.3416C9.95039 12.7777 8.27466 13.6912 8.1433 13.7607Z" fill="#F8F8FA" stroke="#B1B1B1" stroke-width="0.4"/>
</svg>
