<svg width="113" height="113" viewBox="0 0 113 113" fill="none" xmlns="http://www.w3.org/2000/svg">
<path d="M56 0.658203C25.088 0.658203 0 25.7462 0 56.6582C0 87.5702 25.088 112.658 56 112.658C86.912 112.658 112 87.5702 112 56.6582C112 25.7462 86.912 0.658203 56 0.658203Z" fill="#ECF0FF"/>
<path d="M56.384 21.6582C67.192 21.6582 75.984 30.4502 75.984 41.2582C75.984 52.0662 67.192 60.8582 56.384 60.8582C45.576 60.8582 36.784 52.0662 36.784 41.2582C36.784 30.4502 45.576 21.6582 56.384 21.6582ZM56.384 100.058C45.016 100.058 31.576 95.4662 22 83.9302C31.464 76.5382 43.392 72.0582 56.384 72.0582C69.376 72.0582 81.304 76.5382 90.768 83.9302C81.192 95.4662 67.752 100.058 56.384 100.058Z" fill="white"/>
</svg>
