<svg width="35" height="35" viewBox="0 0 35 35" fill="none" xmlns="http://www.w3.org/2000/svg">
<circle cx="17.5" cy="17.5" r="16.335" fill="#999999" stroke="white" stroke-width="2.33005"/>
<path d="M17.5 15.125C16.2127 15.125 15.125 16.2127 15.125 17.5C15.125 18.7873 16.2127 19.875 17.5 19.875C18.7873 19.875 19.875 18.7873 19.875 17.5C19.875 16.2127 18.7873 15.125 17.5 15.125Z" fill="white"/>
<path d="M23.833 11.9586H21.7858L19.6427 9.81558C19.4943 9.6671 19.293 9.58366 19.083 9.58362H15.9163C15.7064 9.58366 15.5051 9.6671 15.3566 9.81558L13.2136 11.9586H11.1663C10.2931 11.9586 9.58301 12.6687 9.58301 13.542V22.2503C9.58301 23.1235 10.2931 23.8336 11.1663 23.8336H23.833C24.7062 23.8336 25.4163 23.1235 25.4163 22.2503V13.542C25.4163 12.6687 24.7062 11.9586 23.833 11.9586ZM17.4997 21.4586C15.3543 21.4586 13.5413 19.6457 13.5413 17.5003C13.5413 15.3549 15.3543 13.542 17.4997 13.542C19.6451 13.542 21.458 15.3549 21.458 17.5003C21.458 19.6457 19.6451 21.4586 17.4997 21.4586Z" fill="white"/>
</svg>
