<svg width="28" height="28" viewBox="0 0 28 28" fill="none" xmlns="http://www.w3.org/2000/svg">
<g clip-path="url(#clip0_1625_52634)">
<path d="M19.2502 13.9999C20.8602 13.9999 22.1552 12.6933 22.1552 11.0833C22.1552 9.47325 20.8602 8.16659 19.2502 8.16659C17.6402 8.16659 16.3335 9.47325 16.3335 11.0833C16.3335 12.6933 17.6402 13.9999 19.2502 13.9999ZM10.5002 12.8333C12.4368 12.8333 13.9885 11.2699 13.9885 9.33325C13.9885 7.39659 12.4368 5.83325 10.5002 5.83325C8.5635 5.83325 7.00016 7.39659 7.00016 9.33325C7.00016 11.2699 8.5635 12.8333 10.5002 12.8333ZM19.2502 16.3333C17.1152 16.3333 12.8335 17.4066 12.8335 19.5416V22.1666H25.6668V19.5416C25.6668 17.4066 21.3852 16.3333 19.2502 16.3333ZM10.5002 15.1666C7.78183 15.1666 2.3335 16.5316 2.3335 19.2499V22.1666H10.5002V19.5416C10.5002 18.5499 10.8852 16.8116 13.2652 15.4933C12.2502 15.2833 11.2702 15.1666 10.5002 15.1666Z" fill="#7790ED"/>
</g>
<defs>
<clipPath id="clip0_1625_52634">
<rect width="28" height="28" fill="white"/>
</clipPath>
</defs>
</svg>
